# xmcd
#
# Track frame offsets: 
#        150
#        16450
#        36507
#        55319
#        70381
#        86628
#        106963
#        126630
#        145007
#        162304
#        177966
#        196673
#
# Disc length: 2867 seconds
#
# Revision: 0
# Processed by: cddbd v1.5.2PL0 Copyright (c) Steve Scherf et al.
# Submitted via: ExactAudioCopy v1.0b3
#
DISCID=ac0b310c
DTITLE=Colin James - Rooftops and Satellites
DYEAR=2009
DGENRE=Blues
TTITLE0=Man's Gotta Be A Stone
TTITLE1=Wavelength
TTITLE2=Lost Again
TTITLE3=Johnny Coolman
TTITLE4=Love Is Calling
TTITLE5=Find My Home
TTITLE6=Stronger
TTITLE7=Corrina
TTITLE8=More Than You Needed
TTITLE9=Better Than I Can Imagine
TTITLE10=Photograph
TTITLE11=If You've Gotta Go, Go Now
EXTD=
EXTT0=
EXTT1=
EXTT2=
EXTT3=
EXTT4=
EXTT5=
EXTT6=
EXTT7=
EXTT8=
EXTT9=
EXTT10=
EXTT11=
PLAYORDER=
